<!-- VERZUS M9.1 ORIGINAL CREW BANNER -->
<svg xmlns="http://www.w3.org/2000/svg" viewBox="0 0 1600 520" preserveAspectRatio="xMidYMid slice">
  <defs>
    <linearGradient id="bg" x1="0" y1="0" x2="1" y2="1">
      <stop offset="0" stop-color="#050810"/>
      <stop offset=".48" stop-color="#170b2a"/>
      <stop offset="1" stop-color="#03171b"/>
    </linearGradient>
    <radialGradient id="purple" cx="32%" cy="45%" r="52%">
      <stop offset="0" stop-color="#8d38ff" stop-opacity=".56"/>
      <stop offset="1" stop-color="#8d38ff" stop-opacity="0"/>
    </radialGradient>
    <radialGradient id="cyan" cx="76%" cy="35%" r="50%">
      <stop offset="0" stop-color="#00f5d4" stop-opacity=".25"/>
      <stop offset="1" stop-color="#00f5d4" stop-opacity="0"/>
    </radialGradient>
    <filter id="blur"><feGaussianBlur stdDeviation="14"/></filter>
  </defs>
  <rect width="1600" height="520" fill="url(#bg)"/>
  <rect width="1600" height="520" fill="url(#purple)"/>
  <rect width="1600" height="520" fill="url(#cyan)"/>
  <g opacity=".68">
    <path d="M-50 430 460 65l46 62L-5 492Z" fill="#7d35ff"/>
    <path d="M780 530 1380-25l54 70-600 555Z" fill="#00e8cf" opacity=".42"/>
    <path d="M350 540 960-80l28 28-610 620Z" fill="#ff4e91" opacity=".34"/>
  </g>
  <g fill="#fff" opacity=".65" filter="url(#blur)">
    <circle cx="280" cy="100" r="8"/><circle cx="610" cy="380" r="7"/><circle cx="1200" cy="130" r="9"/><circle cx="1450" cy="330" r="7"/>
  </g>
  <g stroke="#fff" stroke-opacity=".13">
    <path d="M0 80h1600M0 180h1600M0 280h1600M0 380h1600"/>
    <path d="M180 0v520M480 0v520M780 0v520M1080 0v520M1380 0v520"/>
  </g>
</svg>
