<!-- VERZUS M11.1 ORIGINAL PROFILE AVATAR -->
<svg xmlns="http://www.w3.org/2000/svg" viewBox="0 0 256 256" role="img" aria-labelledby="title description">
  <title id="title">Prismo avatar</title>
  <desc id="description">Original neon player portrait emblem for VERZUS.</desc>
  <defs>
    <radialGradient id="bg" cx="50%" cy="30%" r="75%">
      <stop offset="0" stop-color="#6737ba"/>
      <stop offset="0.52" stop-color="#1c1d31"/>
      <stop offset="1" stop-color="#071116"/>
    </radialGradient>
    <linearGradient id="edge" x1="0" y1="0" x2="1" y2="1">
      <stop stop-color="#bd83ff"/>
      <stop offset="0.52" stop-color="#6d3ef0"/>
      <stop offset="1" stop-color="#24efc4"/>
    </linearGradient>
  </defs>
  <rect width="256" height="256" rx="128" fill="url(#bg)"/>
  <circle cx="128" cy="128" r="113" fill="none" stroke="url(#edge)" stroke-width="8"/>
  <path d="M72 202c7-39 27-61 56-61s49 22 56 61" fill="#121c24" stroke="#24efc4" stroke-opacity=".55" stroke-width="5"/>
  <circle cx="128" cy="96" r="44" fill="#c98c65"/>
  <path d="M87 92c4-36 21-52 45-52 31 0 46 23 43 58-13-7-23-19-29-34-11 18-31 29-59 28Z" fill="#12151b"/>
  <path d="M101 110c8 12 17 18 28 18s20-6 27-18" fill="none" stroke="#70442f" stroke-linecap="round" stroke-width="5"/>
  <circle cx="110" cy="96" r="4" fill="#111"/>
  <circle cx="146" cy="96" r="4" fill="#111"/>
  <path d="M102 77c7-5 14-7 22-5M136 72c8-2 15 0 21 5" fill="none" stroke="#171719" stroke-linecap="round" stroke-width="5"/>
  <path d="m78 199 50-43 50 43" fill="#2a164f" stroke="#9e6eff" stroke-width="4"/>
  <path d="m128 157 17 18-17 28-17-28Z" fill="#24efc4"/>
</svg>
