<svg xmlns="http://www.w3.org/2000/svg" viewBox="0 0 96 96" role="img" aria-labelledby="title">
  <title id="title">Apex Predators original emblem</title>
  <defs>
    <linearGradient id="g" x1="0" y1="1" x2="1" y2="0">
      <stop stop-color="#00e5ff"/>
      <stop offset="1" stop-color="#1976ff"/>
    </linearGradient>
  </defs>
  <circle cx="48" cy="48" r="42" fill="#0b0d10" stroke="url(#g)" stroke-width="4"/>
  <path fill="#ff6a00" d="m48 14 11 23 25 4-18 18 4 25-22-12-22 12 4-25-18-18 25-4Z"/>
  <path fill="#0b0d10" d="m48 30 6 13 14 2-10 10 2 14-12-7-12 7 2-14-10-10 14-2Z"/>
  <path fill="#00e5ff" d="m48 39 3 7 8 1-6 5 2 8-7-4-7 4 2-8-6-5 8-1Z"/>
</svg>
