<!-- VERZUS M10.1 ORIGINAL CREW STICKER -->
<svg xmlns="http://www.w3.org/2000/svg" viewBox="0 0 128 128" role="img" aria-labelledby="title desc">
  <title id="title">Crew victory sticker</title>
  <desc id="desc">Green and purple masked Crew victory emblem</desc>
  <path d="m64 8 18 12 22 1 5 22 11 19-15 17-6 22-23 1-20 11-17-15-22-7 1-23L8 49l17-15 7-22 23 1Z" fill="#7a38e8" stroke="#c69fff" stroke-width="4"/>
  <path d="m32 38 32-16 32 16-5 42-27 25-27-25Z" fill="#0b1417" stroke="#00ff87" stroke-width="4"/>
  <path d="m39 48 19 10-14 10zm50 0L70 58l14 10z" fill="#00ff87"/>
  <path d="m49 81 15 9 15-9" fill="none" stroke="#a66bff" stroke-width="6"/>
</svg>
